<svg xmlns="http://www.w3.org/2000/svg" viewBox="0 0 1920 1080" width="1920" height="1080" preserveAspectRatio="xMidYMid slice"><title>archive</title><defs><linearGradient id="sky" x1="0" y1="0" x2="0" y2="1">
      <stop offset="0%" stop-color="#20242a"/><stop offset="55%" stop-color="#2a3037"/><stop offset="100%" stop-color="#171b20"/>
    </linearGradient><radialGradient id="key" cx="0.5" cy="0.22" r="0.5">
          <stop offset="0%" stop-color="#cfd8dd" stop-opacity="0.14"/>
          <stop offset="55%" stop-color="#cfd8dd" stop-opacity="0.039"/>
          <stop offset="100%" stop-color="#cfd8dd" stop-opacity="0"/>
        </radialGradient><radialGradient id="vig" cx="0.5" cy="0.48" r="0.8">
      <stop offset="42%" stop-color="#000" stop-opacity="0"/>
      <stop offset="100%" stop-color="#000" stop-opacity="0.76"/>
    </radialGradient>
    <linearGradient id="floorFade" x1="0" y1="0" x2="0" y2="1">
      <stop offset="0%" stop-color="#000" stop-opacity="0"/>
      <stop offset="100%" stop-color="#000" stop-opacity="0.72"/>
    </linearGradient></defs><rect width="1920" height="1080" fill="url(#sky)"/><rect width="1920" height="1080" fill="url(#key)"/><rect x="140" y="250" width="330" height="450" fill="#131619"/><rect x="140" y="314" width="330" height="3" fill="#0a0c0e" opacity="0.8"/><rect x="140" y="379" width="330" height="3" fill="#0a0c0e" opacity="0.8"/><rect x="140" y="443" width="330" height="3" fill="#0a0c0e" opacity="0.8"/><rect x="140" y="507" width="330" height="3" fill="#0a0c0e" opacity="0.8"/><rect x="140" y="571" width="330" height="3" fill="#0a0c0e" opacity="0.8"/><rect x="140" y="636" width="330" height="3" fill="#0a0c0e" opacity="0.8"/><rect x="467" y="250" width="3" height="450" fill="#cfd8dd" opacity="0.35"/><rect x="530" y="250" width="330" height="450" fill="#131619"/><rect x="530" y="314" width="330" height="3" fill="#0a0c0e" opacity="0.8"/><rect x="530" y="379" width="330" height="3" fill="#0a0c0e" opacity="0.8"/><rect x="530" y="443" width="330" height="3" fill="#0a0c0e" opacity="0.8"/><rect x="530" y="507" width="330" height="3" fill="#0a0c0e" opacity="0.8"/><rect x="530" y="571" width="330" height="3" fill="#0a0c0e" opacity="0.8"/><rect x="530" y="636" width="330" height="3" fill="#0a0c0e" opacity="0.8"/><rect x="857" y="250" width="3" height="450" fill="#cfd8dd" opacity="0.35"/><rect x="920" y="250" width="330" height="450" fill="#131619"/><rect x="920" y="314" width="330" height="3" fill="#0a0c0e" opacity="0.8"/><rect x="920" y="379" width="330" height="3" fill="#0a0c0e" opacity="0.8"/><rect x="920" y="443" width="330" height="3" fill="#0a0c0e" opacity="0.8"/><rect x="920" y="507" width="330" height="3" fill="#0a0c0e" opacity="0.8"/><rect x="920" y="571" width="330" height="3" fill="#0a0c0e" opacity="0.8"/><rect x="920" y="636" width="330" height="3" fill="#0a0c0e" opacity="0.8"/><rect x="1247" y="250" width="3" height="450" fill="#cfd8dd" opacity="0.35"/><rect x="1320" y="250" width="330" height="450" fill="#131619"/><rect x="1320" y="314" width="330" height="3" fill="#0a0c0e" opacity="0.8"/><rect x="1320" y="379" width="330" height="3" fill="#0a0c0e" opacity="0.8"/><rect x="1320" y="443" width="330" height="3" fill="#0a0c0e" opacity="0.8"/><rect x="1320" y="507" width="330" height="3" fill="#0a0c0e" opacity="0.8"/><rect x="1320" y="571" width="330" height="3" fill="#0a0c0e" opacity="0.8"/><rect x="1320" y="636" width="330" height="3" fill="#0a0c0e" opacity="0.8"/><rect x="1647" y="250" width="3" height="450" fill="#cfd8dd" opacity="0.35"/><rect y="700" width="1920" height="380" fill="#0e1114"/><rect y="698" width="1920" height="2" fill="#000" opacity="0.35"/><rect width="1920" height="1080" fill="url(#vig)"/><rect y="700" width="1920" height="380" fill="url(#floorFade)"/></svg>
