<svg xmlns="http://www.w3.org/2000/svg" viewBox="0 0 1920 1080" width="1920" height="1080" preserveAspectRatio="xMidYMid slice"><title>harbour</title><defs><linearGradient id="sky" x1="0" y1="0" x2="0" y2="1">
      <stop offset="0%" stop-color="#0d1116"/><stop offset="55%" stop-color="#131a21"/><stop offset="100%" stop-color="#080b0e"/>
    </linearGradient><radialGradient id="key" cx="0.56" cy="0.6" r="0.5">
          <stop offset="0%" stop-color="#4d7a97" stop-opacity="0.34"/>
          <stop offset="55%" stop-color="#4d7a97" stop-opacity="0.095"/>
          <stop offset="100%" stop-color="#4d7a97" stop-opacity="0"/>
        </radialGradient><radialGradient id="vig" cx="0.5" cy="0.48" r="0.8">
      <stop offset="42%" stop-color="#000" stop-opacity="0"/>
      <stop offset="100%" stop-color="#000" stop-opacity="0.72"/>
    </radialGradient>
    <linearGradient id="floorFade" x1="0" y1="0" x2="0" y2="1">
      <stop offset="0%" stop-color="#000" stop-opacity="0"/>
      <stop offset="100%" stop-color="#000" stop-opacity="0.72"/>
    </linearGradient></defs><rect width="1920" height="1080" fill="url(#sky)"/><rect width="1920" height="660" fill="url(#key)"/><rect y="440" width="1920" height="380" fill="#152230"/><path d="M-20 470 Q 300 463 760 473 T 1940 468" fill="none" stroke="#8e8f88" stroke-opacity="0.09" stroke-width="2"/><path d="M-20 516 Q 390 509 800 519 T 1940 514" fill="none" stroke="#8e8f88" stroke-opacity="0.09" stroke-width="2"/><path d="M-20 562 Q 480 555 840 565 T 1940 560" fill="none" stroke="#8e8f88" stroke-opacity="0.09" stroke-width="2"/><path d="M-20 608 Q 570 601 880 611 T 1940 606" fill="none" stroke="#8e8f88" stroke-opacity="0.09" stroke-width="2"/><path d="M-20 654 Q 660 647 920 657 T 1940 652" fill="none" stroke="#8e8f88" stroke-opacity="0.09" stroke-width="2"/><path d="M-20 700 Q 750 693 960 703 T 1940 698" fill="none" stroke="#8e8f88" stroke-opacity="0.09" stroke-width="2"/><path d="M-20 746 Q 840 739 1000 749 T 1940 744" fill="none" stroke="#8e8f88" stroke-opacity="0.09" stroke-width="2"/><path d="M-20 792 Q 930 785 1040 795 T 1940 790" fill="none" stroke="#8e8f88" stroke-opacity="0.09" stroke-width="2"/><rect x="120" y="300" width="260" height="150" fill="#0d1116"/><rect x="1500" y="290" width="300" height="160" fill="#0d1116"/><rect x="700" y="330" width="18" height="120" fill="#0d1116"/><rect x="1120" y="320" width="18" height="130" fill="#0d1116"/><path d="M-20 830 Q 538 806 998 828 Q 1498 846 1940 822 L1940 1080 L-20 1080 Z" fill="#0d1319"/><rect x="0" y="830" width="2000" height="40" fill="#0a0e12"/><rect width="1920" height="1080" fill="url(#vig)"/><rect y="860" width="1920" height="220" fill="url(#floorFade)"/></svg>
