<svg xmlns="http://www.w3.org/2000/svg" viewBox="0 0 1920 1080" width="1920" height="1080" preserveAspectRatio="xMidYMid slice"><title>studio</title><defs><linearGradient id="sky" x1="0" y1="0" x2="0" y2="1">
      <stop offset="0%" stop-color="#20242a"/><stop offset="55%" stop-color="#2a3037"/><stop offset="100%" stop-color="#171b20"/>
    </linearGradient><radialGradient id="key" cx="0.5" cy="0.26" r="0.52">
          <stop offset="0%" stop-color="#cfd8dd" stop-opacity="0.18"/>
          <stop offset="55%" stop-color="#cfd8dd" stop-opacity="0.050"/>
          <stop offset="100%" stop-color="#cfd8dd" stop-opacity="0"/>
        </radialGradient><radialGradient id="vig" cx="0.5" cy="0.48" r="0.8">
      <stop offset="42%" stop-color="#000" stop-opacity="0"/>
      <stop offset="100%" stop-color="#000" stop-opacity="0.66"/>
    </radialGradient>
    <linearGradient id="floorFade" x1="0" y1="0" x2="0" y2="1">
      <stop offset="0%" stop-color="#000" stop-opacity="0"/>
      <stop offset="100%" stop-color="#000" stop-opacity="0.72"/>
    </linearGradient></defs><rect width="1920" height="1080" fill="url(#sky)"/><rect width="1920" height="1080" fill="url(#key)"/><rect x="220" y="300" width="300" height="200" fill="#131619"/><rect x="517" y="300" width="3" height="200" fill="#cfd8dd" opacity="0.35"/><rect x="620" y="290" width="300" height="210" fill="#131619"/><rect x="917" y="290" width="3" height="210" fill="#cfd8dd" opacity="0.35"/><rect x="1020" y="305" width="300" height="195" fill="#131619"/><rect x="1317" y="305" width="3" height="195" fill="#cfd8dd" opacity="0.35"/><rect x="1420" y="550" width="340" height="38" fill="#131619"/><rect x="1428" y="588" width="14" height="122" fill="#131619"/><rect x="1738" y="588" width="14" height="122" fill="#131619"/><rect x="1757" y="550" width="3" height="160" fill="#cfd8dd" opacity="0.35"/><rect y="700" width="1920" height="380" fill="#0e1114"/><rect y="698" width="1920" height="2" fill="#000" opacity="0.35"/><rect width="1920" height="1080" fill="url(#vig)"/><rect y="700" width="1920" height="380" fill="url(#floorFade)"/></svg>
